<?xml version="1.0" encoding="UTF-8" standalone="no"?>
<svg
   xmlns:dc="http://purl.org/dc/elements/1.1/"
   xmlns:cc="http://creativecommons.org/ns#"
   xmlns:rdf="http://www.w3.org/1999/02/22-rdf-syntax-ns#"
   xmlns:svg="http://www.w3.org/2000/svg"
   xmlns="http://www.w3.org/2000/svg"
   xmlns:sodipodi="http://sodipodi.sourceforge.net/DTD/sodipodi-0.dtd"
   xmlns:inkscape="http://www.inkscape.org/namespaces/inkscape"
   viewBox="0 0 340 120"
   version="1.1"
   id="svg18"
   sodipodi:docname="github-cborlogo.svg"
   inkscape:version="1.0.2-2 (e86c870879, 2021-01-15)">
  <defs
     id="defs15">
    <filter
       inkscape:collect="always"
       style="color-interpolation-filters:sRGB"
       id="filter1036"
       x="-0.011428353"
       width="1.0228567"
       y="-0.037973859"
       height="1.0759477">
      <feGaussianBlur
         inkscape:collect="always"
         stdDeviation="1.5286747"
         id="feGaussianBlur1038" />
    </filter>
  </defs>
  <metadata
     id="metadata24">
    <rdf:RDF>
      <cc:Work
         rdf:about="">
        <dc:format>image/svg+xml</dc:format>
        <dc:type
           rdf:resource="http://purl.org/dc/dcmitype/StillImage" />
        <dc:title />
      </cc:Work>
    </rdf:RDF>
  </metadata>
  <sodipodi:namedview
     pagecolor="#ffffff"
     bordercolor="#666666"
     borderopacity="1"
     objecttolerance="10"
     gridtolerance="10"
     guidetolerance="10"
     inkscape:pageopacity="0"
     inkscape:pageshadow="2"
     inkscape:window-width="1904"
     inkscape:window-height="1027"
     id="namedview20"
     showgrid="false"
     inkscape:zoom="1.3714286"
     inkscape:cx="292.81679"
     inkscape:cy="61.027071"
     inkscape:window-x="0"
     inkscape:window-y="0"
     inkscape:window-maximized="0"
     inkscape:current-layer="svg18"
     inkscape:document-rotation="0"
     inkscape:snap-page="true"
     inkscape:snap-grids="false"
     inkscape:snap-text-baseline="true"
     inkscape:snap-center="true"
     inkscape:snap-object-midpoints="true"
     inkscape:snap-others="false"
     inkscape:snap-intersection-paths="true" />
  <g
     stroke-width="4"
     stroke="red"
     id="g12"
     style="opacity:0.41;fill:#2b0000;fill-opacity:1;stroke:#2b0000;stroke-opacity:1;filter:url(#filter1036)">
    <path
       d="m 45.428716,111.30717 c -6.597205,0 -12.36976,-1.45399 -17.317664,-4.36197 -4.947905,-2.95138 -8.78904,-7.07464 -11.523409,-12.369761 -2.734368,-5.29513 -4.101552,-11.480011 -4.101552,-18.55464 V 50.044302 c 0,-7.118037 1.367185,-13.324618 4.101552,-18.619743 2.734369,-5.295126 6.575504,-9.396678 11.523409,-12.304656 4.947904,-2.951381 10.720459,-4.427072 17.317664,-4.427072 5.468736,0 10.460043,1.171872 14.973921,3.515615 4.55728,2.343745 8.355009,5.620646 11.3932,9.830705 3.08159,4.210059 6.24999,14.778608 6.24999,14.778608 v 0 h -13.60674 v 0 c 0,0 -2.213536,-5.685749 -4.166658,-7.942688 -1.909717,-2.300341 -4.166656,-4.079851 -6.770816,-5.338528 -2.60416,-1.258677 -5.295125,-1.888016 -8.072896,-1.888016 -5.815957,0 -10.503445,2.061627 -14.062464,6.18488 -3.515617,4.07985 -5.273425,9.483483 -5.273425,16.210895 v 25.976496 c 0,6.727411 1.757807,12.13104 5.273425,16.2109 3.559019,4.07984 8.246506,6.11977 14.062464,6.11977 4.123253,0 8.007792,-1.30208 11.653616,-3.90624 3.645826,-2.604159 7.356754,-11.26299 7.356754,-11.26299 v 0 h 13.60674 v 0 c 0,0 -3.1684,10.56855 -6.24999,14.77861 -3.081591,4.210062 -6.87932,7.486962 -11.3932,9.830702 -4.513877,2.34374 -9.505184,3.51562 -14.973921,3.51562 z"
       id="path834"
       sodipodi:nodetypes="scsssscsccsccscsscsscsssccssss" />
    <path
       d="m 132.34256,55.773454 c 4.9045,2.5e-5 8.59373,-1.150171 11.06768,-3.450512 2.51735,-2.343744 3.81284,-6.589344 3.77603,-10.221328 -0.0385,-3.800017 -1.38888,-8.268208 -4.16665,-10.611952 -2.77777,-2.343744 -6.95033,-3.771678 -12.49997,-3.515616 l -21.67926,2.9e-4 -0.002,27.799 z m -23.50617,42.252885 20.25097,-3.9e-4 c 7.03123,-1.35e-4 12.00084,-1.34548 14.90882,-4.03644 2.95138,-2.69097 4.42707,-6.228291 4.42707,-10.61196 v -0.19531 c 0,-4.687492 -1.25868,-8.420117 -3.77603,-11.197888 -2.47395,-2.821173 -7.86614,-4.420552 -12.30466,-4.23176 l -23.50417,-2.54e-4 z M 95.623907,110.33061 V 15.66939 H 132.9285 c 9.33157,0 16.276,2.322043 20.83328,6.966128 4.55728,4.644085 6.69989,12.054222 6.83592,18.684848 0.0935,4.556115 -1.38889,9.071157 -4.16666,13.0208 -2.77777,3.90624 -8.07288,7.395815 -8.07288,7.395815 0,0 5.38192,3.541657 8.59371,7.838521 3.2552,4.296864 4.8828,9.223064 4.8828,14.778606 v 0.19532 c 0,7.72567 -2.49565,13.95395 -7.48696,18.684842 -4.99131,4.73089 -11.76502,6.87382 -20.31244,7.09634 z"
       id="path836"
       sodipodi:nodetypes="scsssccscscsscsccccssscccssssc" />
    <path
       d="m 211.05329,111.30717 c -6.68402,0 -12.52168,-1.43229 -17.51298,-4.29686 -4.99131,-2.90798 -8.87585,-6.98784 -11.65362,-12.239561 -2.73437,-5.25172 -4.10155,-11.3715 -4.10155,-18.359326 V 49.588574 c 0,-7.031232 1.36718,-13.151007 4.10155,-18.359327 2.77777,-5.251724 6.66231,-9.309873 11.65362,-12.174449 4.9913,-2.907979 10.82896,-4.361968 17.51298,-4.361968 6.684,0 12.52166,1.453989 17.51297,4.361968 4.9913,2.864576 8.85414,6.922725 11.58851,12.174448 2.77777,5.20832 4.16666,11.328096 4.16666,18.359328 v 26.822848 c 0,6.987826 -1.38889,13.107606 -4.16666,18.359326 -2.73437,5.251722 -6.59721,9.331582 -11.58851,12.239562 -4.99131,2.86457 -10.82897,4.29686 -17.51297,4.29686 z m 0,-13.085901 c 5.94616,0 10.69875,-1.95312 14.25777,-5.85936 3.60242,-3.90624 5.40363,-9.07116 5.40363,-15.494758 V 49.132846 c 0,-6.466997 -1.80121,-11.631915 -5.40363,-15.494752 -3.55902,-3.90624 -8.31161,-5.859359 -14.25777,-5.859359 -5.90277,0 -10.65536,1.953119 -14.25778,5.859359 -3.60242,3.862837 -5.40363,9.027755 -5.40363,15.494752 v 27.734305 c 0,6.423598 1.80121,11.588518 5.40363,15.494758 3.60242,3.90624 8.35501,5.85936 14.25778,5.85936 z"
       id="path838"
       sodipodi:nodetypes="sccssccsccssccsscsscscssss" />
    <path
       d="m 277.78439,57.661337 24.80512,1.34e-4 c 3.86284,2.1e-5 6.96613,-1.345483 9.30988,-4.036448 2.34374,-2.690965 3.51561,-6.930071 3.51561,-10.677056 0,-3.746985 -1.17187,-7.986091 -3.51561,-10.677056 -2.34375,-2.690965 -5.45018,-4.19203 -9.30988,-4.036448 l -24.80512,-1.26e-4 z m 55.72952,52.669273 H 317.75875 L 297.81639,70.291336 c -5.86945,0.09764 -14.97738,3.12e-4 -20.032,0 l 5e-4,40.039274 H 264.50367 V 15.604286 c 12.52167,4e-5 25.04334,1.4e-5 37.56501,0 5.51214,0 10.32984,1.150171 14.45309,3.450512 4.12325,2.256939 7.31335,5.425333 9.57029,9.505184 2.30034,4.079852 3.45051,9.456002 3.45051,14.387984 0,4.931984 -1.15017,10.264731 -3.45051,14.387984 -3.92537,6.081502 -7.51099,9.475624 -14.86562,11.531386 z"
       id="path840"
       sodipodi:nodetypes="cssssscccccccccsccsccc" />
  </g>
  <g stroke="black" stroke-width="1">
    <path
       d="m 42.428717,108.30717 c -6.597205,0 -12.36976,-1.45399 -17.317664,-4.36197 -4.947905,-2.95138 -8.78904,-7.074641 -11.523409,-12.369761 -2.734368,-5.29513 -4.1015515,-11.48001 -4.1015515,-18.55464 V 47.044303 c 0,-7.118037 1.3671845,-13.324619 4.1015515,-18.619744 2.734369,-5.295125 6.575504,-9.396677 11.523409,-12.304656 4.947904,-2.951381 10.720459,-4.427072 17.317664,-4.427072 5.468736,0 10.460043,1.171872 14.973921,3.515616 4.55728,2.343744 8.355009,5.620645 11.3932,9.830704 3.08159,4.210059 6.24999,14.778608 6.24999,14.778608 v 0 h -13.60674 v 0 c 0,0 -2.213536,-5.685749 -4.166658,-7.942688 -1.909717,-2.300341 -4.166656,-4.079851 -6.770816,-5.338528 -2.60416,-1.258677 -5.295125,-1.888016 -8.072896,-1.888016 -5.815957,0 -10.503445,2.061627 -14.062464,6.18488 -3.515617,4.079851 -5.273425,9.483483 -5.273425,16.210896 v 25.976496 c 0,6.72741 1.757807,12.13104 5.273425,16.2109 3.559019,4.07984 8.246506,6.11977 14.062464,6.11977 4.123253,0 8.007792,-1.30208 11.653616,-3.90624 3.645826,-2.60416 7.356754,-11.26299 7.356754,-11.26299 v 0 h 13.60674 v 0 c 0,0 -3.1684,10.56855 -6.24999,14.77861 -3.081591,4.21006 -6.87932,7.486961 -11.3932,9.830701 -4.513877,2.34374 -9.505184,3.51562 -14.973921,3.51562 z"
       style="fill:#ff60ff"
        />
    <path
       d="m 129.34256,52.773455 c 4.9045,2.5e-5 8.59373,-1.150171 11.06768,-3.450512 2.51735,-2.343744 3.81284,-6.589344 3.77603,-10.221328 -0.0385,-3.800017 -1.38888,-8.268208 -4.16665,-10.611952 -2.77777,-2.343744 -6.94443,-3.51569 -12.49997,-3.515616 l -21.67926,2.9e-4 -0.002,27.799 z m -23.50617,42.252884 20.25097,-3.9e-4 c 7.03123,-1.35e-4 12.00084,-1.34548 14.90882,-4.03644 2.95138,-2.69097 4.42707,-6.22829 4.42707,-10.61196 v -0.19531 c 0,-4.687492 -1.25868,-8.420117 -3.77603,-11.197888 -2.47395,-2.821173 -7.86212,-4.231712 -12.30466,-4.23176 l -23.50417,-2.54e-4 z M 92.623908,107.33061 V 12.669391 H 129.9285 c 9.33157,0 16.276,2.322043 20.83328,6.966128 4.55728,4.644085 6.69989,12.054222 6.83592,18.684848 0.0935,4.556115 -1.38889,9.071157 -4.16666,13.0208 -2.77777,3.90624 -8.07288,7.395814 -8.07288,7.395814 0,0 5.38192,3.541658 8.59371,7.838522 3.2552,4.296864 4.8828,9.223064 4.8828,14.778606 v 0.19532 c 0,7.72567 -2.49565,13.95395 -7.48696,18.684841 -4.99131,4.73089 -11.76212,7.09634 -20.31244,7.09634 z"
       style="fill:#00ff00"
        />
    <path
       d="m 208.05329,108.30717 c -6.68402,0 -12.52168,-1.43229 -17.51298,-4.29686 -4.99131,-2.90798 -8.87585,-6.987841 -11.65362,-12.239561 -2.73437,-5.25172 -4.10155,-11.3715 -4.10155,-18.359326 V 46.588575 c 0,-7.031232 1.36718,-13.151008 4.10155,-18.359328 2.77777,-5.251723 6.66231,-9.309872 11.65362,-12.174448 4.9913,-2.907979 10.82896,-4.361968 17.51298,-4.361968 6.684,0 12.52166,1.453989 17.51297,4.361968 4.9913,2.864576 8.85414,6.922725 11.58851,12.174448 2.77777,5.20832 4.16666,11.328096 4.16666,18.359328 v 26.822848 c 0,6.987826 -1.38889,13.107606 -4.16666,18.359326 -2.73437,5.25172 -6.59721,9.331581 -11.58851,12.239561 -4.99131,2.86457 -10.82897,4.29686 -17.51297,4.29686 z m 0,-13.085901 c 5.94616,0 10.69875,-1.95312 14.25777,-5.85936 3.60242,-3.90624 5.40363,-9.07116 5.40363,-15.494758 V 46.132847 c 0,-6.466997 -1.80121,-11.631915 -5.40363,-15.494752 -3.55902,-3.90624 -8.31161,-5.85936 -14.25777,-5.85936 -5.90277,0 -10.65536,1.95312 -14.25778,5.85936 -3.60242,3.862837 -5.40363,9.027755 -5.40363,15.494752 v 27.734304 c 0,6.423598 1.80121,11.588518 5.40363,15.494758 3.60242,3.90624 8.35501,5.85936 14.25778,5.85936 z"
       style="fill:#ffff00"
        />
    <path
       d="m 274.78439,54.661337 24.80512,1.34e-4 c 3.86284,2.1e-5 6.96613,-1.345483 9.30988,-4.036448 2.34374,-2.690965 3.51561,-6.930071 3.51561,-10.677056 0,-3.746985 -1.17187,-7.986091 -3.51561,-10.677056 -2.34375,-2.690965 -5.44704,-4.036428 -9.30988,-4.036448 l -24.80512,-1.26e-4 z m 55.72952,52.669273 H 314.75875 L 294.81639,67.291337 c -5.86945,0.09764 -14.97738,3.12e-4 -20.032,0 l 5e-4,40.039273 H 261.50367 V 12.604287 c 12.52167,4e-5 25.04334,1.4e-5 37.56501,0 5.51214,0 10.32984,1.150171 14.45309,3.450512 4.12325,2.256939 7.31335,5.425333 9.57029,9.505184 2.30034,4.079851 3.45051,9.456001 3.45051,14.387984 0,4.931983 -1.15017,10.264731 -3.45051,14.387984 -3.92537,6.081502 -7.51099,9.475624 -14.86562,11.531386 z"
       style="fill:#ff9f4a"
       />
  </g>
</svg>
